<svg width="119" height="122" viewBox="0 0 119 122" fill="none" xmlns="http://www.w3.org/2000/svg">
<g clip-path="url(#clip0_4015_2)">
<path d="M32.5355 104.756C32.3045 104.354 32.1829 103.898 32.1829 103.435C32.1829 102.971 32.3045 102.516 32.5355 102.114L41.4616 86.5795C41.6941 86.175 42.0291 85.8389 42.433 85.6052C42.8369 85.3715 43.2954 85.2485 43.762 85.2485L61.5946 85.2485C62.0612 85.2485 62.5196 85.3715 62.9235 85.6052C63.3274 85.8389 63.6625 86.175 63.895 86.5795L72.8211 102.114C73.0521 102.516 73.1737 102.971 73.1737 103.435C73.1737 103.898 73.0521 104.354 72.8211 104.756L63.895 120.29C63.6625 120.695 63.3274 121.031 62.9235 121.264C62.5196 121.498 62.0612 121.621 61.5946 121.621L43.762 121.621C43.2954 121.621 42.8369 121.498 42.433 121.264C42.0291 121.031 41.6941 120.695 41.4616 120.29L32.5355 104.756Z" stroke="#FFC95F" stroke-width="2"/>
<path d="M32.5355 68.3833C32.3044 67.9813 32.1829 67.5258 32.1829 67.0621C32.1829 66.5985 32.3044 66.143 32.5355 65.741L41.4616 50.2068C41.6941 49.8023 42.0291 49.4662 42.433 49.2325C42.8369 48.9988 43.2954 48.8758 43.762 48.8758L61.5946 48.8758C62.0612 48.8758 62.5196 48.9988 62.9235 49.2325C63.3274 49.4662 63.6625 49.8023 63.895 50.2068L72.8211 65.741C73.0521 66.143 73.1737 66.5985 73.1737 67.0621C73.1737 67.5258 73.0521 67.9813 72.8211 68.3833L63.895 83.9175C63.6625 84.322 63.3274 84.6581 62.9235 84.8917C62.5196 85.1254 62.0612 85.2485 61.5946 85.2485L43.762 85.2485C43.2953 85.2485 42.8369 85.1254 42.433 84.8917C42.0291 84.6581 41.6941 84.322 41.4616 83.9174L32.5355 68.3833ZM1.08005 50.1969C0.849035 49.7949 0.727471 49.3394 0.727471 48.8758C0.727471 48.4122 0.849035 47.9566 1.08005 47.5546L10.0062 32.0205C10.2387 31.6159 10.5737 31.2799 10.9776 31.0462C11.3815 30.8125 11.8399 30.6894 12.3066 30.6895L30.1392 30.6895C30.6058 30.6894 31.0642 30.8125 31.4681 31.0462C31.872 31.2799 32.2071 31.6159 32.4396 32.0205L41.3657 47.5546C41.5967 47.9566 41.7183 48.4122 41.7183 48.8758C41.7183 49.3394 41.5967 49.7949 41.3657 50.197L32.4396 65.7311C32.2071 66.1356 31.872 66.4717 31.4681 66.7054C31.0642 66.9391 30.6058 67.0621 30.1392 67.0621L12.3066 67.0621C11.8399 67.0621 11.3815 66.9391 10.9776 66.7054C10.5737 66.4717 10.2387 66.1356 10.0062 65.7311L1.08005 50.1969Z" stroke="#FFC95F" stroke-width="2"/>
<path d="M1.08008 86.5696C0.849069 86.1676 0.727505 85.7121 0.727505 85.2485C0.727505 84.7848 0.849069 84.3293 1.08008 83.9273L10.0062 68.3931C10.2387 67.9886 10.5738 67.6525 10.9777 67.4189C11.3816 67.1852 11.84 67.0621 12.3066 67.0621L30.1392 67.0621C30.6058 67.0621 31.0643 67.1852 31.4682 67.4189C31.8721 67.6525 32.2071 67.9886 32.4396 68.3932L41.3657 83.9273C41.5968 84.3293 41.7183 84.7848 41.7183 85.2485C41.7183 85.7121 41.5968 86.1676 41.3657 86.5696L32.4396 102.104C32.2071 102.508 31.8721 102.844 31.4682 103.078C31.0643 103.312 30.6058 103.435 30.1392 103.435L12.3066 103.435C11.84 103.435 11.3816 103.312 10.9777 103.078C10.5738 102.844 10.2387 102.508 10.0062 102.104L1.08008 86.5696ZM63.9909 86.5696C63.7599 86.1676 63.6383 85.7121 63.6383 85.2485C63.6383 84.7849 63.7599 84.3293 63.9909 83.9273L72.917 68.3932C73.1495 67.9886 73.4846 67.6525 73.8885 67.4189C74.2924 67.1852 74.7508 67.0621 75.2174 67.0621L93.05 67.0621C93.5167 67.0621 93.9751 67.1852 94.379 67.4189C94.7829 67.6526 95.118 67.9886 95.3504 68.3932L104.277 83.9273C104.508 84.3293 104.629 84.7849 104.629 85.2485C104.629 85.7121 104.508 86.1676 104.277 86.5696L95.3504 102.104C95.118 102.508 94.7829 102.844 94.379 103.078C93.9751 103.312 93.5167 103.435 93.05 103.435L75.2174 103.435C74.7508 103.435 74.2924 103.312 73.8885 103.078C73.4846 102.844 73.1495 102.508 72.917 102.104L63.9909 86.5696ZM35.5673 19.8864C35.3363 19.4844 35.2148 19.0289 35.2148 18.5652C35.2148 18.1016 35.3363 17.6461 35.5673 17.2441L44.4935 1.70992C44.7259 1.30538 45.061 0.96931 45.4649 0.735618C45.8688 0.501925 46.3272 0.378881 46.7939 0.378903L64.6265 0.378904C65.0931 0.378882 65.5515 0.501926 65.9554 0.735618C66.3593 0.969311 66.6944 1.30538 66.9269 1.70992L75.853 17.2441C76.084 17.6461 76.2056 18.1016 76.2056 18.5652C76.2056 19.0289 76.084 19.4844 75.853 19.8864L66.9269 35.4206C66.6944 35.8251 66.3593 36.1612 65.9554 36.3949C65.5515 36.6286 65.0931 36.7516 64.6264 36.7516L46.7939 36.7516C46.3272 36.7516 45.8688 36.6286 45.4649 36.3949C45.061 36.1612 44.7259 35.8251 44.4935 35.4206L35.5673 19.8864ZM77.6342 38.0727C77.4032 37.6707 77.2816 37.2152 77.2816 36.7516C77.2816 36.288 77.4032 35.8324 77.6342 35.4304L86.5603 19.8963C86.7928 19.4917 87.1279 19.1556 87.5318 18.922C87.9357 18.6883 88.3941 18.5652 88.8608 18.5652L106.693 18.5652C107.16 18.5652 107.618 18.6883 108.022 18.922C108.426 19.1557 108.761 19.4917 108.994 19.8963L117.92 35.4304C118.151 35.8324 118.272 36.288 118.272 36.7516C118.272 37.2152 118.151 37.6707 117.92 38.0727L108.994 53.6069C108.761 54.0114 108.426 54.3475 108.022 54.5812C107.618 54.8149 107.16 54.9379 106.693 54.9379L88.8608 54.9379C88.3941 54.9379 87.9357 54.8149 87.5318 54.5812C87.1279 54.3475 86.7928 54.0114 86.5603 53.6069L77.6342 38.0727Z" stroke="#FFC95F" stroke-width="2"/>
</g>
<defs>
<clipPath id="clip0_4015_2">
<rect width="122" height="119" fill="white" transform="translate(119) rotate(90)"/>
</clipPath>
</defs>
</svg>
