<svg width="222" height="289" viewBox="0 0 222 289" fill="none" xmlns="http://www.w3.org/2000/svg">
<path d="M42.0798 116.019C40.0194 115.462 38.4099 113.853 37.8531 111.792L25.5163 66.1464C24.9558 64.0726 25.5468 61.8573 27.0659 60.3383L60.3384 27.0658C61.8574 25.5467 64.0727 24.9557 66.1465 25.5162L111.793 37.853C113.853 38.4098 115.462 40.0193 116.019 42.0797L128.356 87.7257C128.916 89.7995 128.325 92.0148 126.806 93.5338L93.5339 126.806C92.0149 128.325 89.7996 128.916 87.7258 128.356L42.0798 116.019Z" stroke="#A24E34" stroke-width="2" stroke-opacity="0.5"/>
<path d="M108.962 182.901C106.902 182.345 105.292 180.735 104.735 178.675L92.3986 133.029C91.8381 130.955 92.4291 128.74 93.9482 127.221L127.221 93.948C128.74 92.429 130.955 91.838 133.029 92.3985L178.675 104.735C180.735 105.292 182.345 106.902 182.902 108.962L195.238 154.608C195.799 156.682 195.208 158.897 193.689 160.416L160.416 193.689C158.897 195.208 156.682 195.799 154.608 195.238L108.962 182.901Z" stroke="#A24E34" stroke-width="2" stroke-opacity="0.5"/>
<path d="M85.2133 274.532C83.1529 273.975 81.5435 272.366 80.9866 270.306L68.6498 224.66C68.0894 222.586 68.6804 220.371 70.1994 218.852L103.472 185.579C104.991 184.06 107.206 183.469 109.28 184.029L154.926 196.366C156.986 196.923 158.596 198.533 159.153 200.593L171.49 246.239C172.05 248.313 171.459 250.528 169.94 252.047L136.667 285.32C135.148 286.839 132.933 287.43 130.859 286.869L85.2133 274.532Z" stroke="#A24E34" stroke-width="2" stroke-opacity="0.5"/>
<path d="M18.331 207.65C16.2706 207.093 14.6611 205.484 14.1043 203.423L1.76753 157.777C1.20703 155.704 1.79804 153.488 3.31707 151.969L36.5896 118.697C38.1086 117.178 40.3239 116.587 42.3977 117.147L88.0437 129.484C90.1041 130.041 91.7136 131.65 92.2704 133.711L104.607 179.357C105.168 181.431 104.577 183.646 103.058 185.165L69.7851 218.437C68.2661 219.956 66.0508 220.547 63.977 219.987L18.331 207.65Z" stroke="#A24E34" stroke-width="2" stroke-opacity="0.5"/>
<path d="M133.711 92.2704C131.65 91.7135 130.041 90.104 129.484 88.0436L117.147 42.3976C116.587 40.3238 117.178 38.1086 118.697 36.5895L151.969 3.31701C153.488 1.79797 155.704 1.20697 157.777 1.76747L203.423 14.1042C205.484 14.6611 207.093 16.2706 207.65 18.331L219.987 63.977C220.547 66.0508 219.956 68.266 218.437 69.785L185.165 103.058C183.646 104.577 181.43 105.168 179.357 104.607L133.711 92.2704Z" stroke="#A24E34" stroke-width="2" stroke-opacity="0.5"/>
</svg>
