<svg width="322" height="314" viewBox="0 0 322 314" fill="none" xmlns="http://www.w3.org/2000/svg">
<path d="M276.487 228.15C274.328 229.391 271.672 229.391 269.513 228.15L228.513 204.597C226.34 203.349 225 201.034 225 198.527L225 151.473C225 148.966 226.34 146.651 228.513 145.403L269.513 121.85C271.672 120.609 274.328 120.609 276.487 121.85L317.487 145.403C319.66 146.651 321 148.966 321 151.473L321 198.527C321 201.033 319.66 203.349 317.487 204.597L276.487 228.15Z" stroke="#A24E34" stroke-opacity="0.5" stroke-width="2"/>
<path d="M180.487 228.15C178.328 229.391 175.672 229.391 173.513 228.15L132.513 204.597C130.34 203.349 129 201.034 129 198.527L129 151.473C129 148.966 130.34 146.651 132.513 145.403L173.513 121.85C175.672 120.609 178.328 120.609 180.487 121.85L221.487 145.403C223.66 146.651 225 148.966 225 151.473L225 198.527C225 201.033 223.66 203.349 221.487 204.597L180.487 228.15Z" stroke="#A24E34" stroke-opacity="0.5" stroke-width="2"/>
<path d="M132.487 311.15C130.328 312.391 127.672 312.391 125.513 311.15L84.5131 287.597C82.3399 286.349 81 284.034 81 281.527L81 234.473C81 231.966 82.3399 229.651 84.5131 228.403L125.513 204.85C127.672 203.609 130.328 203.609 132.487 204.85L173.487 228.403C175.66 229.651 177 231.966 177 234.473L177 281.527C177 284.033 175.66 286.349 173.487 287.597L132.487 311.15Z" stroke="#A24E34" stroke-opacity="0.5" stroke-width="2"/>
<path d="M228.487 311.15C226.328 312.391 223.672 312.391 221.513 311.15L180.513 287.597C178.34 286.349 177 284.034 177 281.527L177 234.473C177 231.966 178.34 229.651 180.513 228.403L221.513 204.85C223.672 203.609 226.328 203.609 228.487 204.85L269.487 228.403C271.66 229.651 273 231.966 273 234.473L273 281.527C273 284.033 271.66 286.349 269.487 287.597L228.487 311.15Z" stroke="#A24E34" stroke-opacity="0.5" stroke-width="2"/>
<path d="M228.487 145.15C226.328 146.391 223.672 146.391 221.513 145.15L180.513 121.597C178.34 120.349 177 118.034 177 115.527L177 68.4728C177 65.9665 178.34 63.6515 180.513 62.403L221.513 38.8498C223.672 37.6095 226.328 37.6095 228.487 38.8498L269.487 62.403C271.66 63.6515 273 65.9665 273 68.4728L273 115.527C273 118.033 271.66 120.349 269.487 121.597L228.487 145.15Z" stroke="#A24E34" stroke-opacity="0.5" stroke-width="2"/>
<path d="M52.4869 220.15C50.3277 221.391 47.6722 221.391 45.5131 220.15L4.51313 196.597C2.33992 195.349 0.999998 193.034 0.999997 190.527L0.999993 143.473C0.999993 140.966 2.33991 138.651 4.51312 137.403L45.5131 113.85C47.6722 112.609 50.3277 112.609 52.4868 113.85L93.4869 137.403C95.6601 138.651 97 140.966 97 143.473L97 190.527C97 193.033 95.6601 195.349 93.4869 196.597L52.4869 220.15Z" stroke="#A24E34" stroke-opacity="0.5" stroke-width="2"/>
<path d="M100.487 109.15C98.3277 110.391 95.6722 110.391 93.5131 109.15L52.5131 85.597C50.3399 84.3485 49 82.0335 49 79.5272L49 32.4728C49 29.9665 50.3399 27.6515 52.5131 26.403L93.5131 2.84983C95.6722 1.60949 98.3277 1.60949 100.487 2.84983L141.487 26.403C143.66 27.6515 145 29.9665 145 32.4728L145 79.5272C145 82.0335 143.66 84.3485 141.487 85.597L100.487 109.15Z" stroke="#A24E34" stroke-opacity="0.5" stroke-width="2"/>
</svg>
