<svg width="32" height="32" viewBox="0 0 32 32" fill="none" xmlns="http://www.w3.org/2000/svg">
<path d="M11.5248 24.7942C11.1132 24.2563 10.738 23.7171 10.4134 23.2239C10.5839 23.2967 10.7605 23.3706 10.9418 23.4445C12.4724 24.0684 14.4705 24.75 16 24.75C17.5294 24.75 19.5275 24.0684 21.0582 23.4445C21.2395 23.3706 21.4161 23.2967 21.5866 23.2239C21.262 23.7171 20.8868 24.2564 20.4752 24.7942C19.7755 25.7086 18.9892 26.5946 18.1858 27.2453C17.3668 27.9085 16.6249 28.25 16 28.25C15.3751 28.25 14.6331 27.9085 13.8142 27.2453C13.0107 26.5946 12.2244 25.7086 11.5248 24.7942Z" stroke="#1C1C1C" stroke-width="1.5"/>
<path d="M17 28H15L16 32L17 28Z" fill="#1C1C1C"/>
<mask id="path-3-inside-1_227_217" fill="white">
<path fill-rule="evenodd" clip-rule="evenodd" d="M16 12.7704C15.8737 13.445 15.6935 14.275 15.4455 15.1524C15.1422 16.2248 14.7317 17.3886 14.1819 18.4324C13.6367 19.4677 12.9235 20.4445 11.9861 21.0725C10.6819 21.9463 9.28351 22.7464 7.96106 22.899C7.272 22.9785 6.57815 22.8862 5.93391 22.5234C5.29577 22.1642 4.77476 21.5782 4.35654 20.7888C3.94081 20.0041 3.93757 19.1468 4.09941 18.3772C4.26107 17.6085 4.59978 16.8625 4.95691 16.2283C5.31684 15.5892 5.71381 15.0316 6.01834 14.6359C6.17131 14.4371 6.30267 14.277 6.39684 14.1654C6.44396 14.1096 6.48188 14.0657 6.50867 14.0351C6.53545 14.0046 6.53741 14.0026 6.53741 14.0026C7.81077 12.4329 10.1011 11.5162 11.918 10.9893C12.8549 10.7176 13.7177 10.5356 14.3458 10.4214C14.6604 10.3642 14.9175 10.3237 15.0974 10.2974C15.1874 10.2843 15.2581 10.2746 15.3071 10.2682L15.3641 10.2609L15.3798 10.2589L15.3844 10.2584L15.3859 10.2582C15.3859 10.2582 15.3868 10.2581 15.4784 11.035C15.5768 11.0456 15.6627 11.0549 15.7377 11.063L15.4784 11.035L15.3859 10.2582L15.6475 10.2273L15.9996 10.1858L16.3525 10.2274L16.6132 10.2582L16.5216 11.0351L16.2622 11.0631C16.3373 11.055 16.4232 11.0457 16.5216 11.0351C16.6133 10.2582 16.6132 10.2582 16.6132 10.2582L16.6156 10.2585L16.6202 10.259L16.6359 10.261L16.6929 10.2683C16.7419 10.2747 16.8126 10.2844 16.9026 10.2975C17.0825 10.3238 17.3396 10.3643 17.6542 10.4215C18.2823 10.5357 19.1451 10.7177 20.082 10.9894C21.8989 11.5163 24.1892 12.433 25.4626 14.0027L25.4913 14.0352C25.5181 14.0658 25.556 14.1097 25.6032 14.1655C25.6973 14.2771 25.8287 14.4372 25.9817 14.636C26.2862 15.0317 26.6832 15.5893 27.0431 16.2284C27.4002 16.8626 27.7389 17.6086 27.9006 18.3773C28.0624 19.1469 28.0592 20.0042 27.6435 20.7889C27.2252 21.5783 26.7042 22.1643 26.0661 22.5235C25.4218 22.8863 24.728 22.9786 24.0389 22.8991C22.7165 22.7465 21.3181 21.9464 20.0139 21.0726C19.0765 20.4446 18.3633 19.4678 17.8181 18.4325C17.2683 17.3887 16.8578 16.2249 16.5545 15.1525C16.3064 14.275 16.1263 13.445 16 12.7704ZM7.71381 15.0342L7.7291 15.0173L7.74338 14.9995C8.68523 13.8287 10.5577 13.0128 12.3537 12.492C13.1908 12.2493 13.9688 12.0823 14.5523 11.9742L14.5355 12.0736C14.4159 12.7706 14.225 13.7185 13.9399 14.7266C13.6539 15.738 13.2788 16.7896 12.7976 17.7033C12.3119 18.6254 11.7487 19.3483 11.1153 19.7727C9.80568 20.6501 8.68904 21.2401 7.78174 21.3447C7.35593 21.3939 7.00621 21.3316 6.7015 21.1601C6.39068 20.9851 6.05734 20.6571 5.7391 20.0563C5.55181 19.7028 5.51429 19.2518 5.63051 18.6992C5.74691 18.1457 6.00508 17.5556 6.32021 16.996C6.63254 16.4414 6.98321 15.9475 7.25824 15.5901C7.39506 15.4124 7.51147 15.2706 7.59263 15.1744C7.63317 15.1263 7.6648 15.0898 7.68564 15.066L7.70855 15.04L7.71381 15.0342ZM24.2862 15.0343L24.2709 15.0174L24.2566 14.9996C23.3148 13.8288 21.4423 13.0129 19.6463 12.4921C18.8092 12.2494 18.0312 12.0824 17.4477 11.9743L17.4645 12.0737C17.5841 12.7707 17.775 13.7186 18.0601 14.7268C18.3461 15.7381 18.7212 16.7897 19.2024 17.7034C19.6881 18.6255 20.2513 19.3484 20.8847 19.7728C22.1943 20.6502 23.311 21.2402 24.2183 21.3448C24.6441 21.394 24.9938 21.3317 25.2985 21.1602C25.6093 20.9852 25.9427 20.6572 26.2609 20.0565C26.4482 19.7029 26.4857 19.2519 26.3695 18.6993C26.2531 18.1458 25.9949 17.5557 25.6798 16.9961C25.3675 16.4415 25.0168 15.9476 24.7418 15.5902C24.6049 15.4125 24.4885 15.2707 24.4074 15.1745C24.3668 15.1264 24.3352 15.0899 24.3144 15.0661L24.2914 15.0401L24.2862 15.0343Z"/>
</mask>
<path d="M16 12.7704L17.4744 12.4943L14.5256 12.4943L16 12.7704ZM15.4455 15.1524L16.8889 15.5605L16.8889 15.5605L15.4455 15.1524ZM14.1819 18.4324L15.5091 19.1314L15.5091 19.1314L14.1819 18.4324ZM11.9861 21.0725L11.1512 19.8263L11.1512 19.8263L11.9861 21.0725ZM7.96106 22.899L7.78914 21.4089L7.78914 21.4089L7.96106 22.899ZM5.93391 22.5234L6.66981 21.2164L6.66981 21.2164L5.93391 22.5234ZM4.35654 20.7888L5.68202 20.0866L5.68202 20.0866L4.35654 20.7888ZM4.09941 18.3772L2.63152 18.0685L2.63152 18.0685L4.09941 18.3772ZM4.95691 16.2283L6.26392 16.9643L6.26392 16.9643L4.95691 16.2283ZM6.01834 14.6359L4.82963 13.721L4.82963 13.721L6.01834 14.6359ZM6.39684 14.1654L5.25041 13.1981L5.25041 13.1981L6.39684 14.1654ZM6.53741 14.0026L7.60407 15.0572L7.65588 15.0048L7.70231 14.9476L6.53741 14.0026ZM11.918 10.9893L12.3357 12.43L12.3357 12.43L11.918 10.9893ZM14.3458 10.4214L14.0774 8.9456L14.0774 8.9456L14.3458 10.4214ZM15.0974 10.2974L15.3145 11.7816L15.3145 11.7816L15.0974 10.2974ZM15.3071 10.2682L15.1163 8.78037L15.1117 8.78097L15.3071 10.2682ZM15.3641 10.2609L15.1809 8.77208L15.1733 8.77307L15.3641 10.2609ZM15.3798 10.2589L15.2004 8.76971L15.1967 8.77017L15.3798 10.2589ZM15.3844 10.2584L15.2069 8.76894L15.205 8.76916L15.3844 10.2584ZM15.3859 10.2582L15.2095 8.76862L15.2083 8.76877L15.3859 10.2582ZM15.4784 11.035L13.989 11.2125L14.1303 12.3982L15.3174 12.5264L15.4784 11.035ZM15.7377 11.063L15.5767 12.5543L15.8988 9.57169L15.7377 11.063ZM15.6475 10.2273L15.4717 8.73768L15.4717 8.73768L15.6475 10.2273ZM15.9996 10.1858L16.1751 8.6961L15.9994 8.6754L15.8238 8.69613L15.9996 10.1858ZM16.3525 10.2274L16.5286 8.73776L16.528 8.73769L16.3525 10.2274ZM16.6132 10.2582L16.7904 8.76872L16.7894 8.7686L16.6132 10.2582ZM16.5216 11.0351L16.6825 12.5265L17.8711 12.3982L18.0112 11.2109L16.5216 11.0351ZM16.2622 11.0631L16.1012 9.57179L16.4232 12.5544L16.2622 11.0631ZM16.6156 10.2585L16.795 8.76926L16.7928 8.769L16.6156 10.2585ZM16.6202 10.259L16.8033 8.77027L16.7996 8.76982L16.6202 10.259ZM16.6359 10.261L16.8267 8.77315L16.819 8.77221L16.6359 10.261ZM16.6929 10.2683L16.8883 8.78107L16.8837 8.78048L16.6929 10.2683ZM16.9026 10.2975L16.6855 11.7817L16.6855 11.7817L16.9026 10.2975ZM17.6542 10.4215L17.9226 8.9457L17.9226 8.9457L17.6542 10.4215ZM20.082 10.9894L19.6643 12.4301L19.6643 12.4301L20.082 10.9894ZM25.4626 14.0027L24.2977 14.9477L24.3174 14.9719L24.3381 14.9954L25.4626 14.0027ZM25.4913 14.0352L26.6198 13.047L26.6159 13.0426L25.4913 14.0352ZM25.6032 14.1655L26.7496 13.1982L26.7496 13.1982L25.6032 14.1655ZM25.9817 14.636L24.7929 15.5508L24.7929 15.5508L25.9817 14.636ZM27.0431 16.2284L25.7361 16.9644L25.7361 16.9644L27.0431 16.2284ZM27.9006 18.3773L29.3685 18.0686L29.3685 18.0686L27.9006 18.3773ZM27.6435 20.7889L26.318 20.0867L26.318 20.0867L27.6435 20.7889ZM26.0661 22.5235L25.3302 21.2165L25.3302 21.2165L26.0661 22.5235ZM24.0389 22.8991L24.2109 21.409L24.2109 21.409L24.0389 22.8991ZM20.0139 21.0726L20.8488 19.8264L20.8488 19.8264L20.0139 21.0726ZM17.8181 18.4325L16.4909 19.1315L16.4909 19.1315L17.8181 18.4325ZM16.5545 15.1525L15.1111 15.5606L15.1111 15.5606L16.5545 15.1525ZM7.71381 15.0342L6.60173 14.0275L6.59549 14.0345L7.71381 15.0342ZM7.7291 15.0173L8.84116 16.0239L8.87048 15.9915L8.89787 15.9575L7.7291 15.0173ZM7.74338 14.9995L8.91215 15.9397L8.91215 15.9397L7.74338 14.9995ZM12.3537 12.492L12.7715 13.9327L12.7715 13.9327L12.3537 12.492ZM14.5523 11.9742L16.0312 12.2251L16.3903 10.1084L14.2792 10.4993L14.5523 11.9742ZM14.5355 12.0736L16.0139 12.3272L16.0144 12.3244L14.5355 12.0736ZM13.9399 14.7266L15.3833 15.1348L15.3833 15.1348L13.9399 14.7266ZM12.7976 17.7033L14.1248 18.4023L14.1248 18.4023L12.7976 17.7033ZM11.1153 19.7727L10.2804 18.5265L10.2804 18.5265L11.1153 19.7727ZM7.78174 21.3447L7.60982 19.8546L7.60982 19.8546L7.78174 21.3447ZM6.7015 21.1601L7.4374 19.853L7.4374 19.853L6.7015 21.1601ZM5.7391 20.0563L4.41362 20.7586L4.41362 20.7586L5.7391 20.0563ZM5.63051 18.6992L7.0984 19.0079L5.63051 18.6992ZM6.32021 16.996L7.62722 17.7321L7.62722 17.7321L6.32021 16.996ZM7.25824 15.5901L6.06953 14.6753L6.06953 14.6753L7.25824 15.5901ZM7.59263 15.1744L8.73905 16.1417L8.73905 16.1417L7.59263 15.1744ZM7.68564 15.066L6.56094 14.0735L6.55726 14.0777L7.68564 15.066ZM7.70855 15.04L6.59021 14.0403L6.58385 14.0475L7.70855 15.04ZM24.2862 15.0343L25.4046 14.0346L25.3982 14.0276L24.2862 15.0343ZM24.2709 15.0174L23.1021 15.9575L23.1295 15.9916L23.1589 16.024L24.2709 15.0174ZM24.2566 14.9996L25.4254 14.0595L25.4254 14.0594L24.2566 14.9996ZM19.6463 12.4921L20.064 11.0515L20.064 11.0515L19.6463 12.4921ZM17.4477 11.9743L17.7208 10.4994L15.6097 10.1085L15.9688 12.2252L17.4477 11.9743ZM17.4645 12.0737L15.9856 12.3245L15.9861 12.3273L17.4645 12.0737ZM18.0601 14.7268L16.6167 15.1349L16.6167 15.1349L18.0601 14.7268ZM19.2024 17.7034L20.5296 17.0044L20.5296 17.0044L19.2024 17.7034ZM20.8847 19.7728L21.7196 18.5266L21.7196 18.5266L20.8847 19.7728ZM24.2183 21.3448L24.3902 19.8547L24.3902 19.8547L24.2183 21.3448ZM25.2985 21.1602L24.5626 19.8531L24.5626 19.8531L25.2985 21.1602ZM26.2609 20.0565L24.9354 19.3542L24.9354 19.3542L26.2609 20.0565ZM26.3695 18.6993L24.9016 19.008L24.9016 19.008L26.3695 18.6993ZM25.6798 16.9961L24.3728 17.7322L24.3728 17.7322L25.6798 16.9961ZM24.7418 15.5902L25.9305 14.6754L25.9305 14.6754L24.7418 15.5902ZM24.4074 15.1745L25.5538 14.2072L25.5538 14.2071L24.4074 15.1745ZM24.3144 15.0661L25.4428 14.0778L25.439 14.0736L24.3144 15.0661ZM24.2914 15.0401L25.4162 14.0476L25.4098 14.0405L24.2914 15.0401ZM14.5256 12.4943C14.4055 13.1359 14.235 13.9203 14.002 14.7442L16.8889 15.5605C17.1521 14.6297 17.3418 13.7541 17.4744 13.0464L14.5256 12.4943ZM14.002 14.7442C13.7154 15.7581 13.3388 16.8143 12.8548 17.7334L15.5091 19.1314C16.1245 17.9629 16.569 16.6916 16.8889 15.5605L14.002 14.7442ZM12.8548 17.7334C12.3666 18.6602 11.7972 19.3935 11.1512 19.8263L12.821 22.3187C14.0498 21.4955 14.9067 20.2752 15.5091 19.1314L12.8548 17.7334ZM11.1512 19.8263C9.84318 20.7027 8.71425 21.3022 7.78914 21.4089L8.13298 24.3891C9.85276 24.1907 11.5205 23.19 12.821 22.3187L11.1512 19.8263ZM7.78914 21.4089C7.35194 21.4593 6.98816 21.3956 6.66981 21.2164L5.19801 23.8305C6.16815 24.3767 7.19206 24.4977 8.13298 24.3891L7.78914 21.4089ZM6.66981 21.2164C6.34573 21.0339 6.00457 20.6954 5.68202 20.0866L3.03106 21.491C3.54495 22.461 4.24581 23.2944 5.19801 23.8305L6.66981 21.2164ZM5.68202 20.0866C5.48564 19.7159 5.44899 19.2485 5.5673 18.6859L2.63152 18.0685C2.42616 19.045 2.39598 20.2922 3.03106 21.491L5.68202 20.0866ZM5.5673 18.6859C5.68559 18.1235 5.94711 17.5269 6.26392 16.9643L3.6499 15.4923C3.25245 16.1981 2.83655 17.0936 2.63152 18.0685L5.5673 18.6859ZM6.26392 16.9643C6.57823 16.4062 6.93081 15.9097 7.20705 15.5507L4.82963 13.721C4.4968 14.1535 4.05544 14.7721 3.6499 15.4923L6.26392 16.9643ZM7.20705 15.5507C7.34454 15.3721 7.46157 15.2295 7.54326 15.1327L5.25041 13.1981C5.14378 13.3245 4.99808 13.5021 4.82963 13.721L7.20705 15.5507ZM7.54326 15.1327C7.58407 15.0843 7.61596 15.0475 7.63705 15.0234L5.38028 13.0468C5.34779 13.0839 5.30384 13.1348 5.25041 13.1981L7.54326 15.1327ZM7.63705 15.0234C7.64311 15.0165 7.64736 15.0117 7.65024 15.0084C7.65319 15.0051 7.65434 15.0038 7.65427 15.0039C7.6542 15.0039 7.65361 15.0046 7.65262 15.0057C7.65169 15.0067 7.64991 15.0087 7.64754 15.0113C7.64541 15.0137 7.64129 15.0182 7.63598 15.0239C7.63326 15.0268 7.6294 15.031 7.62472 15.0359C7.62233 15.0384 7.61945 15.0414 7.61616 15.0448C7.6145 15.0465 7.61266 15.0484 7.61068 15.0505C7.60968 15.0515 7.60863 15.0526 7.60753 15.0537C7.60699 15.0542 7.60642 15.0548 7.60585 15.0554C7.60556 15.0557 7.60512 15.0561 7.60497 15.0563C7.60452 15.0567 7.60407 15.0572 6.53741 14.0026C5.47074 12.948 5.47029 12.9484 5.46984 12.9489C5.4697 12.949 5.46926 12.9495 5.46897 12.9498C5.46839 12.9503 5.46783 12.9509 5.46728 12.9515C5.46618 12.9526 5.46513 12.9537 5.46413 12.9547C5.46214 12.9567 5.46031 12.9586 5.45864 12.9603C5.45534 12.9637 5.45245 12.9668 5.45004 12.9693C5.44532 12.9743 5.44138 12.9785 5.43856 12.9815C5.43303 12.9875 5.42856 12.9924 5.42582 12.9954C5.42033 13.0015 5.41545 13.0069 5.4119 13.0109C5.40451 13.0192 5.39457 13.0305 5.38028 13.0468L7.63705 15.0234ZM7.70231 14.9476C8.66158 13.7651 10.5466 12.9488 12.3357 12.43L11.5002 9.54868C9.6556 10.0836 6.95995 11.1007 5.3725 13.0576L7.70231 14.9476ZM12.3357 12.43C13.211 12.1762 14.0218 12.0049 14.6141 11.8972L14.0774 8.9456C13.4137 9.0663 12.4988 9.25911 11.5002 9.54868L12.3357 12.43ZM14.6141 11.8972C14.9098 11.8434 15.1497 11.8057 15.3145 11.7816L14.8803 8.81323C14.6853 8.84175 14.411 8.88495 14.0774 8.9456L14.6141 11.8972ZM15.3145 11.7816C15.3969 11.7696 15.4604 11.7609 15.5025 11.7554L15.1117 8.78097C15.0558 8.78831 14.9779 8.79895 14.8803 8.81323L15.3145 11.7816ZM15.498 11.756L15.5549 11.7487L15.1733 8.77307L15.1163 8.78038L15.498 11.756ZM15.5473 11.7497L15.563 11.7477L15.1967 8.77017L15.181 8.7721L15.5473 11.7497ZM15.5593 11.7482L15.5638 11.7476L15.205 8.76916L15.2004 8.76972L15.5593 11.7482ZM15.562 11.7478L15.5634 11.7477L15.2083 8.76877L15.2069 8.76894L15.562 11.7478ZM15.3859 10.2582C15.5622 11.7478 15.0355 11.7167 14.5521 11.5051C14.4647 11.4421 14.2801 11.2718 14.1882 11.1614C14.0776 11.0147 14.0209 10.8817 14.0046 10.8431C13.9626 10.744 13.9412 10.6622 13.9366 10.645C13.9221 10.5907 13.914 10.5473 13.9124 10.5391C13.9071 10.5112 13.9038 10.4892 13.9031 10.4853C13.901 10.4714 13.8996 10.4607 13.8994 10.4594C13.8987 10.4539 13.8984 10.4513 13.899 10.4564C13.9001 10.465 13.9027 10.4865 13.9085 10.5345C13.92 10.6298 13.943 10.8226 13.9888 11.2108L16.9681 10.8592C16.9222 10.4705 16.8989 10.2749 16.887 10.1761C16.8811 10.127 16.8778 10.1 16.8759 10.0843C16.875 10.0772 16.8739 10.0686 16.8727 10.0601C16.8724 10.0573 16.8708 10.0458 16.8686 10.0316C16.868 10.0274 16.8647 10.0053 16.8593 9.97738C16.8578 9.96916 16.8496 9.92576 16.8351 9.87147C16.8305 9.85421 16.8091 9.77242 16.7671 9.67333C16.7508 9.63475 16.6941 9.50177 16.5835 9.35505C16.4916 9.24467 16.307 9.07439 16.2197 9.01131C15.7363 8.79972 15.2095 8.76862 15.3859 10.2582ZM15.3175 12.5264C15.4158 12.537 15.5016 12.5462 15.5766 12.5543L15.8988 9.57169C15.8237 9.56358 15.7378 9.5543 15.6394 9.54368L15.3175 12.5264ZM15.8988 9.57169L15.6395 9.54369L15.3174 12.5264L15.5767 12.5543L15.8988 9.57169ZM16.9679 10.8575L16.8753 10.0807L13.8964 10.4357L13.989 11.2125L16.9679 10.8575ZM15.5617 11.7479L15.8233 11.717L15.4717 8.73768L15.2101 8.76856L15.5617 11.7479ZM15.8238 8.69613L15.4717 8.73768L15.8233 11.717L16.1754 11.6755L15.8238 8.69613ZM15.824 11.6755L16.1769 11.7171L16.528 8.73769L16.1751 8.6961L15.824 11.6755ZM16.7894 8.7686L16.5286 8.73776L16.1763 11.717L16.4371 11.7478L16.7894 8.7686ZM18.0112 11.2109L18.1029 10.434L15.1236 10.0824L15.0319 10.8593L18.0112 11.2109ZM16.4232 12.5544L16.6825 12.5265L16.3606 9.54378L16.1013 9.57178L16.4232 12.5544ZM16.3606 9.54378C16.2624 9.55439 16.1763 9.56367 16.1012 9.57179L16.4233 12.5544C16.4983 12.5463 16.584 12.5371 16.6825 12.5265L16.3606 9.54378ZM16.6132 10.2582C16.1006 11.6679 15.3363 11.0453 15.1235 10.0827C15.1236 10.0827 15.1236 10.0826 15.1236 10.0826C15.1236 10.0825 15.1236 10.0825 15.1236 10.0825C15.1236 10.0825 15.1236 10.0825 15.1236 10.0825C15.1236 10.0824 15.1236 10.0824 15.1236 10.0825C15.1236 10.0825 15.1236 10.0825 15.1236 10.0826C15.1235 10.0828 15.1235 10.0832 15.1234 10.0839C15.1232 10.0854 15.1229 10.0885 15.1222 10.0945C15.1207 10.1067 15.1179 10.131 15.1121 10.1795C15.1007 10.2766 15.0777 10.4709 15.0319 10.8593L18.0112 11.2109C18.0571 10.8225 18.08 10.6283 18.0915 10.5311C18.0972 10.4826 18.1 10.4583 18.1015 10.4462C18.1022 10.4401 18.1026 10.4371 18.1027 10.4355C18.1028 10.4348 18.1029 10.4344 18.1029 10.4342C18.1029 10.4341 18.1029 10.4341 18.1029 10.434C18.1029 10.434 18.1029 10.434 18.1029 10.434C18.1029 10.434 18.1029 10.434 18.1029 10.4339C18.1029 10.4339 18.1029 10.4339 18.1029 10.4339C18.1029 10.4338 18.1029 10.4337 18.103 10.4337C17.8902 9.47114 17.1259 8.84853 16.6132 10.2582ZM16.7928 8.769L16.7904 8.76872L16.4361 11.7477L16.4384 11.748L16.7928 8.769ZM16.7996 8.76982L16.795 8.76927L16.4362 11.7477L16.4407 11.7483L16.7996 8.76982ZM16.819 8.77221L16.8033 8.77027L16.437 11.7478L16.4527 11.7498L16.819 8.77221ZM16.8837 8.78048L16.8267 8.77317L16.4451 11.7488L16.502 11.7561L16.8837 8.78048ZM17.1197 8.81333C17.0221 8.79905 16.9442 8.78841 16.8883 8.78107L16.4975 11.7555C16.5396 11.761 16.6031 11.7697 16.6855 11.7817L17.1197 8.81333ZM17.9226 8.9457C17.589 8.88505 17.3147 8.84185 17.1197 8.81333L16.6855 11.7817C16.8503 11.8058 17.0902 11.8435 17.3859 11.8973L17.9226 8.9457ZM20.4998 9.54878C19.5012 9.25921 18.5863 9.0664 17.9226 8.9457L17.3859 11.8973C17.9782 12.005 18.789 12.1763 19.6643 12.4301L20.4998 9.54878ZM26.6275 13.0577C25.04 11.1008 22.3444 10.0837 20.4998 9.54878L19.6643 12.4301C21.4534 12.9489 23.3384 13.7652 24.2977 14.9477L26.6275 13.0577ZM26.6159 13.0426L26.5871 13.01L24.3381 14.9954L24.3668 15.0279L26.6159 13.0426ZM26.7496 13.1982C26.6961 13.1348 26.6522 13.084 26.6198 13.047L24.3629 15.0235C24.384 15.0476 24.4159 15.0845 24.4568 15.1328L26.7496 13.1982ZM27.1704 13.7211C27.0019 13.5022 26.8562 13.3246 26.7496 13.1982L24.4567 15.1328C24.5384 15.2296 24.6555 15.3722 24.7929 15.5508L27.1704 13.7211ZM28.3501 15.4924C27.9446 14.7723 27.5032 14.1536 27.1704 13.7211L24.7929 15.5508C25.0692 15.9098 25.4218 16.4063 25.7361 16.9644L28.3501 15.4924ZM29.3685 18.0686C29.1635 17.0937 28.7476 16.1982 28.3501 15.4924L25.7361 16.9644C26.0529 17.527 26.3144 18.1236 26.4327 18.686L29.3685 18.0686ZM28.9689 21.4911C29.604 20.2923 29.5738 19.0451 29.3685 18.0686L26.4327 18.686C26.551 19.2486 26.5144 19.716 26.318 20.0867L28.9689 21.4911ZM26.802 23.8306C27.7542 23.2945 28.4551 22.4611 28.9689 21.4911L26.318 20.0867C25.9954 20.6955 25.6543 21.034 25.3302 21.2165L26.802 23.8306ZM23.867 24.3892C24.8079 24.4978 25.8319 24.3768 26.802 23.8306L25.3302 21.2165C25.0118 21.3957 24.6481 21.4594 24.2109 21.409L23.867 24.3892ZM19.179 22.3188C20.4795 23.1901 22.1472 24.1908 23.867 24.3892L24.2109 21.409C23.2858 21.3023 22.1568 20.7028 20.8488 19.8264L19.179 22.3188ZM16.4909 19.1315C17.0933 20.2753 17.9502 21.4956 19.179 22.3188L20.8488 19.8264C20.2028 19.3936 19.6334 18.6603 19.1452 17.7335L16.4909 19.1315ZM15.1111 15.5606C15.431 16.6917 15.8755 17.963 16.4909 19.1315L19.1452 17.7335C18.6612 16.8144 18.2846 15.7582 17.998 14.7443L15.1111 15.5606ZM14.5256 13.0464C14.6581 13.7541 14.8479 14.6297 15.1111 15.5606L17.998 14.7443C17.765 13.9204 17.5945 13.136 17.4744 12.4943L14.5256 13.0464ZM6.61704 14.0106L6.60175 14.0275L8.82587 16.0408L8.84116 16.0239L6.61704 14.0106ZM6.57461 14.0593L6.56033 14.0771L8.89787 15.9575L8.91215 15.9397L6.57461 14.0593ZM11.936 11.0514C10.9779 11.3292 9.96477 11.6951 9.04395 12.1672C8.13742 12.6319 7.22943 13.2453 6.57461 14.0593L8.91215 15.9397C9.19918 15.5829 9.69835 15.2029 10.4125 14.8368C11.1124 14.478 11.9335 14.1757 12.7715 13.9327L11.936 11.0514ZM14.2792 10.4993C13.6606 10.6138 12.8323 10.7914 11.936 11.0514L12.7715 13.9327C13.5492 13.7072 14.277 13.5507 14.8254 13.4491L14.2792 10.4993ZM16.0144 12.3244L16.0312 12.2251L13.0735 11.7234L13.0566 11.8227L16.0144 12.3244ZM15.3833 15.1348C15.6867 14.062 15.8882 13.06 16.0139 12.3272L13.0571 11.8199C12.9436 12.4811 12.7633 13.3749 12.4965 14.3185L15.3833 15.1348ZM14.1248 18.4023C14.6717 17.3638 15.0808 16.2047 15.3833 15.1348L12.4965 14.3185C12.2271 15.2713 11.886 16.2153 11.4704 17.0043L14.1248 18.4023ZM11.9502 21.0188C12.875 20.3992 13.582 19.4329 14.1248 18.4023L11.4704 17.0043C11.0419 17.818 10.6224 18.2973 10.2804 18.5265L11.9502 21.0188ZM7.95366 22.8348C9.25978 22.6842 10.6473 21.8917 11.9502 21.0188L10.2804 18.5265C8.96404 19.4084 8.1183 19.7959 7.60982 19.8546L7.95366 22.8348ZM5.9656 22.4671C6.5951 22.8216 7.27448 22.9132 7.95366 22.8348L7.60982 19.8546C7.51497 19.8656 7.46697 19.8597 7.45141 19.857C7.43953 19.855 7.43874 19.8537 7.4374 19.853L5.9656 22.4671ZM4.41362 20.7586C4.82799 21.5407 5.34138 22.1157 5.9656 22.4671L7.4374 19.853C7.43458 19.8514 7.39827 19.831 7.33525 19.7613C7.27029 19.6895 7.17577 19.564 7.06458 19.3541L4.41362 20.7586ZM4.16262 18.3905C4.00229 19.1529 4.00793 19.9928 4.41362 20.7586L7.06458 19.3541C7.09569 19.4129 7.02629 19.3508 7.0984 19.0079L4.16262 18.3905ZM5.01319 16.26C4.65786 16.891 4.32243 17.6306 4.16262 18.3905L7.0984 19.0079C7.1714 18.6608 7.35229 18.2203 7.62722 17.7321L5.01319 16.26ZM6.06953 14.6753C5.76622 15.0694 5.37116 15.6243 5.01319 16.26L7.62722 17.7321C7.89392 17.2584 8.20019 16.8256 8.44695 16.505L6.06953 14.6753ZM6.4462 14.2071C6.35258 14.318 6.22183 14.4774 6.06953 14.6753L8.44695 16.505C8.56829 16.3473 8.67036 16.2231 8.73905 16.1417L6.4462 14.2071ZM6.55726 14.0777C6.53071 14.108 6.49305 14.1515 6.4462 14.2071L8.73905 16.1417C8.77328 16.1011 8.79888 16.0716 8.81403 16.0543L6.55726 14.0777ZM6.58385 14.0475L6.56094 14.0735L8.81034 16.0585L8.83325 16.0325L6.58385 14.0475ZM6.59549 14.0345L6.59023 14.0404L8.82688 16.0397L8.83214 16.0338L6.59549 14.0345ZM23.1589 16.024L23.1742 16.0409L25.3982 14.0276L25.3829 14.0107L23.1589 16.024ZM23.0878 15.9398L23.1021 15.9575L25.4397 14.0772L25.4254 14.0595L23.0878 15.9398ZM19.2285 13.9328C20.0665 14.1758 20.8876 14.4781 21.5875 14.8369C22.3016 15.203 22.8008 15.583 23.0878 15.9398L25.4254 14.0594C24.7706 13.2454 23.8626 12.632 22.9561 12.1673C22.0352 11.6952 21.0221 11.3293 20.064 11.0515L19.2285 13.9328ZM17.1746 13.4492C17.723 13.5508 18.4508 13.7073 19.2285 13.9328L20.064 11.0515C19.1677 10.7915 18.3394 10.6139 17.7208 10.4994L17.1746 13.4492ZM18.9434 11.8228L18.9265 11.7235L15.9688 12.2252L15.9856 12.3245L18.9434 11.8228ZM19.5035 14.3186C19.2367 13.375 19.0564 12.4812 18.9429 11.82L15.9861 12.3273C16.1118 13.0601 16.3133 14.0621 16.6167 15.1349L19.5035 14.3186ZM20.5296 17.0044C20.114 16.2154 19.7729 15.2714 19.5035 14.3186L16.6167 15.1349C16.9192 16.2048 17.3283 17.3639 17.8752 18.4024L20.5296 17.0044ZM21.7196 18.5266C21.3776 18.2975 20.9581 17.8181 20.5296 17.0044L17.8752 18.4024C18.418 19.433 19.125 20.3993 20.0498 21.0189L21.7196 18.5266ZM24.3902 19.8547C23.8817 19.796 23.036 19.4085 21.7196 18.5266L20.0498 21.0189C21.3527 21.8918 22.7402 22.6843 24.0463 22.8349L24.3902 19.8547ZM24.5626 19.8531C24.5613 19.8539 24.5605 19.8551 24.5486 19.8571C24.533 19.8598 24.485 19.8657 24.3902 19.8547L24.0463 22.8349C24.7255 22.9133 25.4049 22.8217 26.0344 22.4672L24.5626 19.8531ZM24.9354 19.3542C24.8242 19.5641 24.7297 19.6896 24.6647 19.7614C24.6017 19.8311 24.5654 19.8515 24.5626 19.8531L26.0344 22.4672C26.6586 22.1158 27.172 21.5408 27.5864 20.7587L24.9354 19.3542ZM24.9016 19.008C24.9737 19.3509 24.9043 19.413 24.9354 19.3542L27.5864 20.7587C27.9921 19.9929 27.9977 19.153 27.8374 18.3906L24.9016 19.008ZM24.3728 17.7322C24.6477 18.2204 24.8286 18.6609 24.9016 19.008L27.8374 18.3906C27.6776 17.6307 27.3421 16.8911 26.9868 16.2601L24.3728 17.7322ZM23.553 16.5051C23.7998 16.8257 24.1061 17.2585 24.3728 17.7322L26.9868 16.2601C26.6288 15.6244 26.2338 15.0695 25.9305 14.6754L23.553 16.5051ZM23.2609 16.1418C23.3296 16.2232 23.4317 16.3474 23.5531 16.5051L25.9305 14.6754C25.7782 14.4775 25.6474 14.3181 25.5538 14.2072L23.2609 16.1418ZM23.186 16.0544C23.2011 16.0717 23.2267 16.1012 23.261 16.1418L25.5538 14.2071C25.5069 14.1516 25.4693 14.1081 25.4428 14.0778L23.186 16.0544ZM23.1668 16.0326L23.1897 16.0586L25.439 14.0736L25.4161 14.0476L23.1668 16.0326ZM23.1678 16.0339L23.1731 16.0397L25.4098 14.0405L25.4046 14.0347L23.1678 16.0339Z" fill="#1C1C1C" mask="url(#path-3-inside-1_227_217)"/>
<path d="M12 20.5C15.1162 22.2612 16.8679 22.2644 20 20.5" stroke="#1C1C1C" stroke-width="1.5"/>
<path d="M14 17C15.5581 18.3321 16.434 18.3345 18 17" stroke="#1C1C1C" stroke-width="1.5"/>
<path d="M20.25 8C20.25 9.6474 18.512 11.25 16 11.25C13.488 11.25 11.75 9.6474 11.75 8C11.75 6.3526 13.488 4.75 16 4.75C18.512 4.75 20.25 6.3526 20.25 8Z" stroke="#1C1C1C" stroke-width="1.5"/>
<path d="M10 1C10 1 11.2888 1.00253 12 1.35379C13.4561 2.07302 14 5 14 5" stroke="#1C1C1C" stroke-width="1.5" stroke-linecap="round"/>
<path d="M22 1C22 1 20.7112 1.00253 20 1.35379C18.5439 2.07302 18 5 18 5" stroke="#1C1C1C" stroke-width="1.5" stroke-linecap="round"/>
<path d="M11 14.5C11 14.5 9.83394 15.2248 9 16C8.2849 16.6647 7.5 18 7.5 18" stroke="#1C1C1C" stroke-width="1.5" stroke-linecap="round"/>
</svg>
