<svg width="32" height="32" viewBox="0 0 32 32" fill="none" xmlns="http://www.w3.org/2000/svg">
<mask id="path-1-outside-1_235_360" maskUnits="userSpaceOnUse" x="1" y="1" width="31" height="31" fill="black">
<rect fill="white" x="1" y="1" width="31" height="31"/>
<path fill-rule="evenodd" clip-rule="evenodd" d="M2.9675 29.6456C2.61989 29.298 2.61989 28.7344 2.9675 28.3868L14.7791 16.5752L2.82124 4.61731C2.39292 4.189 2.39292 3.49456 2.82124 3.06624C3.24955 2.63793 3.94397 2.63793 4.37229 3.06623L16.3304 15.024L28.5936 2.76071C28.9412 2.4131 29.5048 2.4131 29.8524 2.76071C30.2 3.10833 30.2 3.67192 29.8524 4.01954L17.5892 16.2828L29.7062 28.4001C30.1345 28.8284 30.1345 29.5229 29.7062 29.9512C29.2778 30.3795 28.5834 30.3795 28.1551 29.9512L16.0379 17.834L4.22633 29.6456C3.87871 29.9933 3.31512 29.9933 2.9675 29.6456Z"/>
</mask>
<path d="M2.9675 28.3868L1.90684 27.3262L1.90684 27.3262L2.9675 28.3868ZM2.9675 29.6456L1.90684 30.7063L1.90684 30.7063L2.9675 29.6456ZM14.7791 16.5752L15.8398 17.6359L16.9004 16.5752L15.8398 15.5145L14.7791 16.5752ZM2.82124 4.61731L1.76058 5.67797L1.76058 5.67797L2.82124 4.61731ZM2.82124 3.06624L3.8819 4.12691L3.8819 4.1269L2.82124 3.06624ZM4.37229 3.06623L3.31164 4.12691L3.31164 4.12691L4.37229 3.06623ZM16.3304 15.024L15.2697 16.0846L16.3304 17.1453L17.391 16.0846L16.3304 15.024ZM28.5936 2.76071L29.6543 3.82137L29.6543 3.82137L28.5936 2.76071ZM29.8524 2.76071L30.9131 1.70005L30.9131 1.70005L29.8524 2.76071ZM29.8524 4.01954L30.9131 5.0802L30.9131 5.0802L29.8524 4.01954ZM17.5892 16.2828L16.5285 15.2221L15.4679 16.2828L16.5285 17.3434L17.5892 16.2828ZM29.7062 28.4001L30.7668 27.3395L30.7668 27.3395L29.7062 28.4001ZM16.0379 17.834L17.0986 16.7734L16.0379 15.7127L14.9773 16.7734L16.0379 17.834ZM4.22633 29.6456L3.16567 28.585L3.16567 28.585L4.22633 29.6456ZM1.90684 27.3262C0.973441 28.2596 0.973439 29.7729 1.90684 30.7063L4.02816 28.585C4.26633 28.8231 4.26633 29.2093 4.02816 29.4475L1.90684 27.3262ZM13.7185 15.5145L1.90684 27.3262L4.02816 29.4475L15.8398 17.6359L13.7185 15.5145ZM15.8398 15.5145L3.8819 3.55665L1.76058 5.67797L13.7185 17.6359L15.8398 15.5145ZM3.8819 3.55665C4.03937 3.71412 4.03937 3.96943 3.8819 4.12691L1.76058 2.00558C0.746472 3.01969 0.746477 4.66387 1.76058 5.67797L3.8819 3.55665ZM3.8819 4.1269C3.72443 4.28438 3.46912 4.28438 3.31164 4.12691L5.43293 2.00556C4.41883 0.991482 2.77467 0.991494 1.76057 2.00558L3.8819 4.1269ZM3.31164 4.12691L15.2697 16.0846L17.391 13.9633L5.43293 2.00556L3.31164 4.12691ZM27.5329 1.70005L15.2697 13.9633L17.391 16.0846L29.6543 3.82137L27.5329 1.70005ZM30.9131 1.70005C29.9797 0.766651 28.4663 0.766648 27.5329 1.70005L29.6543 3.82137C29.4161 4.05954 29.0299 4.05954 28.7918 3.82137L30.9131 1.70005ZM30.9131 5.0802C31.8465 4.1468 31.8465 2.63345 30.9131 1.70005L28.7918 3.82137C28.5536 3.5832 28.5536 3.19705 28.7918 2.95888L30.9131 5.0802ZM18.6498 17.3435L30.9131 5.0802L28.7918 2.95888L16.5285 15.2221L18.6498 17.3435ZM16.5285 17.3434L28.6455 29.4608L30.7668 27.3395L18.6498 15.2222L16.5285 17.3434ZM28.6455 29.4608C28.488 29.3033 28.488 29.048 28.6455 28.8905L30.7668 31.0118C31.7809 29.9977 31.7809 28.3536 30.7668 27.3395L28.6455 29.4608ZM28.6455 28.8905C28.803 28.733 29.0583 28.733 29.2158 28.8905L27.0944 31.0118C28.1085 32.0259 29.7527 32.0259 30.7668 31.0118L28.6455 28.8905ZM29.2158 28.8905L17.0986 16.7734L14.9773 18.8947L27.0944 31.0118L29.2158 28.8905ZM5.28699 30.7063L17.0986 18.8947L14.9773 16.7734L3.16567 28.585L5.28699 30.7063ZM1.90684 30.7063C2.84024 31.6397 4.35359 31.6397 5.28699 30.7063L3.16567 28.585C3.40384 28.3468 3.78999 28.3468 4.02816 28.585L1.90684 30.7063Z" fill="black" mask="url(#path-1-outside-1_235_360)"/>
</svg>
