<svg width="32" height="31" viewBox="0 0 32 31" fill="none" xmlns="http://www.w3.org/2000/svg">
<path d="M4.31396 16.0903V28.3644C4.31396 28.9167 4.76168 29.3644 5.31396 29.3644H26.5436C27.0959 29.3644 27.5436 28.9167 27.5436 28.3644V16.8712" stroke="#5F2F2B" stroke-width="1.5" stroke-linecap="round"/>
<path d="M0.995605 17.1777C0.995605 17.1777 7.47282 1.4978 15.9289 1.4978C24.3851 1.4978 30.8623 17.1777 30.8623 17.1777" stroke="#5F2F2B" stroke-width="1.5" stroke-linecap="round"/>
<path d="M11.4382 20.5603L11.0632 19.9107L11.4382 20.5603ZM11.4382 23.6119L11.0632 24.2614L11.4382 23.6119ZM13.831 24.7047L13.456 24.0552L13.831 24.7047ZM13.331 24.7047L13.706 24.0552L13.331 24.7047ZM20.5589 20.5603L20.934 19.9107L20.5589 20.5603ZM20.5589 23.6119L20.934 24.2614L20.5589 23.6119ZM18.1662 24.7047L17.7912 25.3542L18.1662 24.7047ZM18.6662 24.7047L19.0412 25.3542L18.6662 24.7047ZM16.2735 23.6119L15.8984 24.2614L16.2735 23.6119ZM16.2735 15.2982L15.8985 15.9477L16.2735 15.2982ZM15.7735 15.2982L15.3985 14.6487L15.7735 15.2982ZM18.1662 19.4427L18.5412 20.0922L18.1662 19.4427ZM15.7237 23.6119L16.0987 24.2614L15.7237 23.6119ZM15.7735 20.5355L15.3985 21.185L15.7735 20.5355ZM16.2735 20.5355L16.6485 21.185L16.6485 21.185L16.2735 20.5355ZM13.6307 16.824L12.8807 16.824L13.6307 16.824ZM13.8807 16.391L13.5057 15.7415L13.8807 16.391ZM13.8807 19.4427L13.5057 20.0922L13.8807 19.4427ZM14.3807 19.0096L14.3807 16.824L12.8807 16.824L12.8807 19.0096L14.3807 19.0096ZM16.1485 19.8859L14.2557 18.7931L13.5057 20.0922L15.3985 21.185L16.1485 19.8859ZM17.7912 18.7931L15.8985 19.8859L16.6485 21.185L18.5412 20.0922L17.7912 18.7931ZM17.6662 16.824V19.0096H19.1662V16.824H17.6662ZM15.8985 15.9477L17.7912 17.0405L18.5412 15.7415L16.6485 14.6487L15.8985 15.9477ZM14.2557 17.0405L16.1485 15.9477L15.3985 14.6487L13.5057 15.7415L14.2557 17.0405ZM15.2735 20.7046V23.1789H16.7735V20.7046H15.2735ZM15.8984 24.2614L17.7912 25.3542L18.5412 24.0552L16.6485 22.9624L15.8984 24.2614ZM19.0412 25.3542L20.934 24.2614L20.1839 22.9624L18.2912 24.0552L19.0412 25.3542ZM21.5589 23.1789V20.9933H20.0589V23.1789H21.5589ZM20.934 19.9107L18.7912 18.6736L18.0412 19.9726L20.1839 21.2098L20.934 19.9107ZM15.2237 20.7046V23.1789H16.7237V20.7046H15.2237ZM15.3487 22.9624L13.456 24.0552L14.206 25.3542L16.0987 24.2614L15.3487 22.9624ZM13.706 24.0552L11.8132 22.9624L11.0632 24.2614L12.956 25.3542L13.706 24.0552ZM11.9382 23.1789V20.9933H10.4382V23.1789H11.9382ZM11.8132 21.2098L13.956 19.9726L13.206 18.6736L11.0632 19.9107L11.8132 21.2098ZM11.9382 20.9933C11.9382 21.0826 11.8906 21.1651 11.8132 21.2098L11.0632 19.9107C10.6765 20.134 10.4382 20.5467 10.4382 20.9933H11.9382ZM11.8132 22.9624C11.8906 23.0071 11.9382 23.0896 11.9382 23.1789H10.4382C10.4382 23.6255 10.6765 24.0381 11.0632 24.2614L11.8132 22.9624ZM13.456 24.0552C13.5333 24.0105 13.6286 24.0105 13.706 24.0552L12.956 25.3542C13.3427 25.5775 13.8192 25.5775 14.206 25.3542L13.456 24.0552ZM21.5589 20.9933C21.5589 20.5467 21.3207 20.134 20.934 19.9107L20.1839 21.2098C20.1066 21.1651 20.0589 21.0826 20.0589 20.9933H21.5589ZM20.934 24.2614C21.3207 24.0381 21.5589 23.6255 21.5589 23.1789H20.0589C20.0589 23.0896 20.1066 23.0071 20.1839 22.9624L20.934 24.2614ZM17.7912 25.3542C18.1779 25.5775 18.6545 25.5775 19.0412 25.3542L18.2912 24.0552C18.3685 24.0105 18.4638 24.0105 18.5412 24.0552L17.7912 25.3542ZM15.2735 23.1789C15.2735 23.6255 15.5117 24.0381 15.8984 24.2614L16.6485 22.9624C16.7258 23.0071 16.7735 23.0896 16.7735 23.1789H15.2735ZM16.6485 14.6487C16.2617 14.4254 15.7852 14.4254 15.3985 14.6487L16.1485 15.9477C16.0711 15.9924 15.9758 15.9924 15.8985 15.9477L16.6485 14.6487ZM19.1662 16.824C19.1662 16.3774 18.928 15.9648 18.5412 15.7415L17.7912 17.0405C17.7139 16.9959 17.6662 16.9133 17.6662 16.824H19.1662ZM18.5412 20.0922C18.928 19.8689 19.1662 19.4562 19.1662 19.0096H17.6662C17.6662 18.9203 17.7139 18.8378 17.7912 18.7931L18.5412 20.0922ZM15.2237 23.1789C15.2237 23.0896 15.2714 23.0071 15.3487 22.9624L16.0987 24.2614C16.4855 24.0381 16.7237 23.6255 16.7237 23.1789H15.2237ZM15.3985 21.185C15.7852 21.4083 16.2617 21.4083 16.6485 21.185L15.8985 19.8859C15.9758 19.8413 16.0711 19.8413 16.1485 19.8859L15.3985 21.185ZM14.3807 16.824C14.3807 16.9133 14.3331 16.9959 14.2557 17.0405L13.5057 15.7415C13.119 15.9648 12.8807 16.3774 12.8807 16.824L14.3807 16.824ZM12.8807 19.0096C12.8807 19.4562 13.119 19.8689 13.5057 20.0922L14.2557 18.7931C14.3331 18.8378 14.3807 18.9203 14.3807 19.0096L12.8807 19.0096Z" fill="#5F2F2B"/>
<path d="M26.6204 9.92593C26.6204 10.3401 26.9562 10.6759 27.3704 10.6759C27.7846 10.6759 28.1204 10.3401 28.1204 9.92593H26.6204ZM25.75 7.55556V4.5H24.25V7.55556H25.75ZM25.5 4.75H26.8704V3.25H25.5V4.75ZM26.6204 4.5V9.92593H28.1204V4.5H26.6204ZM26.8704 4.75C26.7323 4.75 26.6204 4.63807 26.6204 4.5H28.1204C28.1204 3.80964 27.5607 3.25 26.8704 3.25V4.75ZM25.75 4.5C25.75 4.63807 25.6381 4.75 25.5 4.75V3.25C24.8096 3.25 24.25 3.80964 24.25 4.5H25.75Z" fill="#5F2F2B"/>
<path d="M7 14C7 14 7.82191 11.3463 8.875 9.91667C9.85277 8.58927 12 7 12 7" stroke="#5F2F2B" stroke-linecap="round"/>
</svg>
