<svg width="32" height="33" viewBox="0 0 32 33" fill="none" xmlns="http://www.w3.org/2000/svg">
<path d="M4.31396 18.0903V30.3644C4.31396 30.9167 4.76168 31.3644 5.31396 31.3644H26.5436C27.0959 31.3644 27.5436 30.9167 27.5436 30.3644V18.8712" stroke="#5F2F2B" stroke-width="1.5" stroke-linecap="round"/>
<path d="M0.995605 17.1777L15.5669 1.87797C15.7639 1.67108 16.094 1.67108 16.291 1.87797L30.8623 17.1777" stroke="#5F2F2B" stroke-width="1.5" stroke-linecap="round"/>
<path d="M11.4382 22.5603L11.0632 21.9107L11.4382 22.5603ZM11.4382 25.6119L11.0632 26.2614L11.4382 25.6119ZM13.831 26.7047L13.456 26.0552L13.831 26.7047ZM13.331 26.7047L13.706 26.0552L13.331 26.7047ZM20.5589 22.5603L20.934 21.9107L20.5589 22.5603ZM20.5589 25.6119L20.934 26.2614L20.5589 25.6119ZM18.1662 26.7047L17.7912 27.3542L18.1662 26.7047ZM18.6662 26.7047L19.0412 27.3542L18.6662 26.7047ZM16.2735 25.6119L15.8984 26.2614L16.2735 25.6119ZM16.2735 17.2982L15.8985 17.9477L16.2735 17.2982ZM15.7735 17.2982L15.3985 16.6487L15.7735 17.2982ZM18.1662 21.4427L18.5412 22.0922L18.1662 21.4427ZM15.7237 25.6119L16.0987 26.2614L15.7237 25.6119ZM15.7735 22.5355L15.3985 23.185L15.7735 22.5355ZM16.2735 22.5355L16.6485 23.185L16.6485 23.185L16.2735 22.5355ZM13.6307 18.824L12.8807 18.824L13.6307 18.824ZM13.8807 18.391L13.5057 17.7415L13.8807 18.391ZM13.8807 21.4427L13.5057 22.0922L13.8807 21.4427ZM14.3807 21.0096L14.3807 18.824L12.8807 18.824L12.8807 21.0096L14.3807 21.0096ZM16.1485 21.8859L14.2557 20.7931L13.5057 22.0922L15.3985 23.185L16.1485 21.8859ZM17.7912 20.7931L15.8985 21.8859L16.6485 23.185L18.5412 22.0922L17.7912 20.7931ZM17.6662 18.824V21.0096H19.1662V18.824H17.6662ZM15.8985 17.9477L17.7912 19.0405L18.5412 17.7415L16.6485 16.6487L15.8985 17.9477ZM14.2557 19.0405L16.1485 17.9477L15.3985 16.6487L13.5057 17.7415L14.2557 19.0405ZM15.2735 22.7046V25.1789H16.7735V22.7046H15.2735ZM15.8984 26.2614L17.7912 27.3542L18.5412 26.0552L16.6485 24.9624L15.8984 26.2614ZM19.0412 27.3542L20.934 26.2614L20.1839 24.9624L18.2912 26.0552L19.0412 27.3542ZM21.5589 25.1789V22.9933H20.0589V25.1789H21.5589ZM20.934 21.9107L18.7912 20.6736L18.0412 21.9726L20.1839 23.2098L20.934 21.9107ZM15.2237 22.7046V25.1789H16.7237V22.7046H15.2237ZM15.3487 24.9624L13.456 26.0552L14.206 27.3542L16.0987 26.2614L15.3487 24.9624ZM13.706 26.0552L11.8132 24.9624L11.0632 26.2614L12.956 27.3542L13.706 26.0552ZM11.9382 25.1789V22.9933H10.4382V25.1789H11.9382ZM11.8132 23.2098L13.956 21.9726L13.206 20.6736L11.0632 21.9107L11.8132 23.2098ZM11.9382 22.9933C11.9382 23.0826 11.8906 23.1651 11.8132 23.2098L11.0632 21.9107C10.6765 22.134 10.4382 22.5467 10.4382 22.9933H11.9382ZM11.8132 24.9624C11.8906 25.0071 11.9382 25.0896 11.9382 25.1789H10.4382C10.4382 25.6255 10.6765 26.0381 11.0632 26.2614L11.8132 24.9624ZM13.456 26.0552C13.5333 26.0105 13.6286 26.0105 13.706 26.0552L12.956 27.3542C13.3427 27.5775 13.8192 27.5775 14.206 27.3542L13.456 26.0552ZM21.5589 22.9933C21.5589 22.5467 21.3207 22.134 20.934 21.9107L20.1839 23.2098C20.1066 23.1651 20.0589 23.0826 20.0589 22.9933H21.5589ZM20.934 26.2614C21.3207 26.0381 21.5589 25.6255 21.5589 25.1789H20.0589C20.0589 25.0896 20.1066 25.0071 20.1839 24.9624L20.934 26.2614ZM17.7912 27.3542C18.1779 27.5775 18.6545 27.5775 19.0412 27.3542L18.2912 26.0552C18.3685 26.0105 18.4638 26.0105 18.5412 26.0552L17.7912 27.3542ZM15.2735 25.1789C15.2735 25.6255 15.5117 26.0381 15.8984 26.2614L16.6485 24.9624C16.7258 25.0071 16.7735 25.0896 16.7735 25.1789H15.2735ZM16.6485 16.6487C16.2617 16.4254 15.7852 16.4254 15.3985 16.6487L16.1485 17.9477C16.0711 17.9924 15.9758 17.9924 15.8985 17.9477L16.6485 16.6487ZM19.1662 18.824C19.1662 18.3774 18.928 17.9648 18.5412 17.7415L17.7912 19.0405C17.7139 18.9959 17.6662 18.9133 17.6662 18.824H19.1662ZM18.5412 22.0922C18.928 21.8689 19.1662 21.4562 19.1662 21.0096H17.6662C17.6662 20.9203 17.7139 20.8378 17.7912 20.7931L18.5412 22.0922ZM15.2237 25.1789C15.2237 25.0896 15.2714 25.0071 15.3487 24.9624L16.0987 26.2614C16.4855 26.0381 16.7237 25.6255 16.7237 25.1789H15.2237ZM15.3985 23.185C15.7852 23.4083 16.2617 23.4083 16.6485 23.185L15.8985 21.8859C15.9758 21.8413 16.0711 21.8413 16.1485 21.8859L15.3985 23.185ZM14.3807 18.824C14.3807 18.9133 14.3331 18.9959 14.2557 19.0405L13.5057 17.7415C13.119 17.9648 12.8807 18.3774 12.8807 18.824L14.3807 18.824ZM12.8807 21.0096C12.8807 21.4562 13.119 21.8689 13.5057 22.0922L14.2557 20.7931C14.3331 20.8378 14.3807 20.9203 14.3807 21.0096L12.8807 21.0096Z" fill="#5F2F2B"/>
<path d="M25.8457 12.5199C25.8457 12.9341 26.1815 13.2699 26.5957 13.2699C27.0099 13.2699 27.3457 12.9341 27.3457 12.5199H25.8457ZM24.9753 10.1495V7.09399H23.4753V10.1495H24.9753ZM24.7253 7.34399H26.0957V5.84399H24.7253V7.34399ZM25.8457 7.09399V12.5199H27.3457V7.09399H25.8457ZM26.0957 7.34399C25.9576 7.34399 25.8457 7.23207 25.8457 7.09399H27.3457C27.3457 6.40364 26.7861 5.84399 26.0957 5.84399V7.34399ZM24.9753 7.09399C24.9753 7.23207 24.8634 7.34399 24.7253 7.34399V5.84399C24.035 5.84399 23.4753 6.40364 23.4753 7.09399H24.9753Z" fill="#5F2F2B"/>
</svg>
