<svg width="32" height="32" viewBox="0 0 32 32" fill="none" xmlns="http://www.w3.org/2000/svg">
<path d="M4.31396 17.0903V29.3644C4.31396 29.9167 4.76168 30.3644 5.31396 30.3644H26.5436C27.0959 30.3644 27.5436 29.9167 27.5436 29.3644V17.8712" stroke="#5F2F2B" stroke-width="1.3" stroke-linecap="round"/>
<path d="M0.995605 16.1777L15.5669 0.87797C15.7639 0.671076 16.094 0.671076 16.291 0.877971L30.8623 16.1777" stroke="#5F2F2B" stroke-width="1.3" stroke-linecap="round"/>
<path d="M11.4382 21.5603L11.1132 20.9973L11.4382 21.5603ZM11.4382 24.6119L11.1132 25.1748L11.4382 24.6119ZM13.831 25.7047L13.506 25.1418L13.831 25.7047ZM13.331 25.7047L13.656 25.1418L13.331 25.7047ZM20.5589 21.5603L20.8839 20.9973L20.5589 21.5603ZM20.5589 24.6119L20.8839 25.1748L20.5589 24.6119ZM18.1662 25.7047L17.8412 26.2676L18.1662 25.7047ZM18.6662 25.7047L18.9912 26.2676L18.6662 25.7047ZM16.2735 24.6119L15.9484 25.1748L16.2735 24.6119ZM16.2735 16.2982L15.9485 16.8611L16.2735 16.2982ZM15.7735 16.2982L15.4485 15.7353L15.7735 16.2982ZM18.1662 20.4427L18.4912 21.0056L18.1662 20.4427ZM15.7237 24.6119L16.0487 25.1748L15.7237 24.6119ZM15.7735 21.5355L15.4485 22.0984L15.7735 21.5355ZM16.2735 21.5355L16.5985 22.0984L16.2735 21.5355ZM13.6307 17.824L12.9807 17.824L13.6307 17.824ZM13.8807 17.391L13.5557 16.8281L13.8807 17.391ZM13.8807 20.4427L13.5557 21.0056L13.8807 20.4427ZM14.2807 20.0096L14.2807 17.824L12.9807 17.824L12.9807 20.0096L14.2807 20.0096ZM16.0985 20.9725L14.2057 19.8797L13.5557 21.0056L15.4485 22.0984L16.0985 20.9725ZM17.8412 19.8797L15.9485 20.9725L16.5985 22.0984L18.4912 21.0056L17.8412 19.8797ZM17.7662 17.824V20.0096H19.0662V17.824H17.7662ZM15.9485 16.8611L17.8412 17.9539L18.4912 16.8281L16.5985 15.7353L15.9485 16.8611ZM14.2057 17.9539L16.0985 16.8611L15.4485 15.7353L13.5557 16.8281L14.2057 17.9539ZM15.3735 21.7046V24.1789H16.6735V21.7046H15.3735ZM15.9484 25.1748L17.8412 26.2676L18.4912 25.1418L16.5985 24.049L15.9484 25.1748ZM18.9912 26.2676L20.8839 25.1748L20.2339 24.049L18.3412 25.1418L18.9912 26.2676ZM21.4589 24.1789V21.9933H20.1589V24.1789H21.4589ZM20.8839 20.9973L18.7412 19.7602L18.0912 20.886L20.2339 22.1232L20.8839 20.9973ZM15.3237 21.7046V24.1789H16.6237V21.7046H15.3237ZM15.3987 24.049L13.506 25.1418L14.156 26.2676L16.0487 25.1748L15.3987 24.049ZM13.656 25.1418L11.7632 24.049L11.1132 25.1748L13.006 26.2676L13.656 25.1418ZM11.8382 24.1789V21.9933H10.5382V24.1789H11.8382ZM11.7632 22.1232L13.906 20.886L13.256 19.7602L11.1132 20.9973L11.7632 22.1232ZM11.8382 21.9933C11.8382 22.0469 11.8096 22.0964 11.7632 22.1232L11.1132 20.9973C10.7574 21.2028 10.5382 21.5824 10.5382 21.9933H11.8382ZM11.7632 24.049C11.8096 24.0758 11.8382 24.1253 11.8382 24.1789H10.5382C10.5382 24.5897 10.7574 24.9694 11.1132 25.1748L11.7632 24.049ZM13.506 25.1418C13.5524 25.115 13.6096 25.115 13.656 25.1418L13.006 26.2676C13.3618 26.4731 13.8002 26.4731 14.156 26.2676L13.506 25.1418ZM21.4589 21.9933C21.4589 21.5824 21.2398 21.2028 20.8839 20.9973L20.2339 22.1232C20.1875 22.0964 20.1589 22.0469 20.1589 21.9933H21.4589ZM20.8839 25.1748C21.2398 24.9694 21.4589 24.5897 21.4589 24.1789H20.1589C20.1589 24.1253 20.1875 24.0758 20.2339 24.049L20.8839 25.1748ZM17.8412 26.2676C18.197 26.4731 18.6354 26.4731 18.9912 26.2676L18.3412 25.1418C18.3876 25.115 18.4448 25.115 18.4912 25.1418L17.8412 26.2676ZM15.3735 24.1789C15.3735 24.5897 15.5926 24.9694 15.9484 25.1748L16.5985 24.049C16.6449 24.0758 16.6735 24.1253 16.6735 24.1789H15.3735ZM16.5985 15.7353C16.2427 15.5298 15.8043 15.5298 15.4485 15.7353L16.0985 16.8611C16.0521 16.8879 15.9949 16.8879 15.9485 16.8611L16.5985 15.7353ZM19.0662 17.824C19.0662 17.4132 18.847 17.0335 18.4912 16.8281L17.8412 17.9539C17.7948 17.9271 17.7662 17.8776 17.7662 17.824H19.0662ZM18.4912 21.0056C18.847 20.8001 19.0662 20.4205 19.0662 20.0096H17.7662C17.7662 19.9561 17.7948 19.9065 17.8412 19.8797L18.4912 21.0056ZM15.3237 24.1789C15.3237 24.1253 15.3523 24.0758 15.3987 24.049L16.0487 25.1748C16.4045 24.9694 16.6237 24.5897 16.6237 24.1789H15.3237ZM15.4485 22.0984C15.8043 22.3038 16.2427 22.3038 16.5985 22.0984L15.9485 20.9725C15.9949 20.9457 16.0521 20.9457 16.0985 20.9725L15.4485 22.0984ZM14.2807 17.824C14.2807 17.8776 14.2521 17.9271 14.2057 17.9539L13.5557 16.8281C13.1999 17.0335 12.9807 17.4132 12.9807 17.824L14.2807 17.824ZM12.9807 20.0096C12.9807 20.4205 13.1999 20.8001 13.5557 21.0056L14.2057 19.8797C14.2521 19.9065 14.2807 19.9561 14.2807 20.0096L12.9807 20.0096Z" fill="#5F2F2B"/>
<path d="M25.9457 11.5199C25.9457 11.8789 26.2367 12.1699 26.5957 12.1699C26.9547 12.1699 27.2457 11.8789 27.2457 11.5199H25.9457ZM24.8753 9.14955V6.09399H23.5753V9.14955H24.8753ZM24.7253 6.24399H26.0957V4.94399H24.7253V6.24399ZM25.9457 6.09399V11.5199H27.2457V6.09399H25.9457ZM26.0957 6.24399C26.0129 6.24399 25.9457 6.17684 25.9457 6.09399H27.2457C27.2457 5.45887 26.7308 4.94399 26.0957 4.94399V6.24399ZM24.8753 6.09399C24.8753 6.17684 24.8082 6.24399 24.7253 6.24399V4.94399C24.0902 4.94399 23.5753 5.45887 23.5753 6.09399H24.8753Z" fill="#5F2F2B"/>
</svg>
