<svg width="32" height="32" viewBox="0 0 32 32" fill="none" xmlns="http://www.w3.org/2000/svg">
<path d="M4.31396 17.0903V29.3644C4.31396 29.9167 4.76168 30.3644 5.31396 30.3644H26.5436C27.0959 30.3644 27.5436 29.9167 27.5436 29.3644V17.8712" stroke="#1C1C1C" stroke-width="1.5" stroke-linecap="round"/>
<path d="M0.995605 18.1777C0.995605 18.1777 7.47282 2.4978 15.9289 2.4978C24.3851 2.4978 30.8623 18.1777 30.8623 18.1777" stroke="#1C1C1C" stroke-width="1.5" stroke-linecap="round"/>
<path d="M11.4382 21.5603L11.0632 20.9107L11.4382 21.5603ZM11.4382 24.6119L11.0632 25.2614L11.4382 24.6119ZM13.831 25.7047L13.456 25.0552L13.831 25.7047ZM13.331 25.7047L13.706 25.0552L13.331 25.7047ZM20.5589 21.5603L20.934 20.9107L20.5589 21.5603ZM20.5589 24.6119L20.934 25.2614L20.5589 24.6119ZM18.1662 25.7047L17.7912 26.3542L18.1662 25.7047ZM18.6662 25.7047L19.0412 26.3542L18.6662 25.7047ZM16.2735 24.6119L15.8984 25.2614L16.2735 24.6119ZM16.2735 16.2982L15.8985 16.9477L16.2735 16.2982ZM15.7735 16.2982L15.3985 15.6487L15.7735 16.2982ZM18.1662 20.4427L18.5412 21.0922L18.1662 20.4427ZM15.7237 24.6119L16.0987 25.2614L15.7237 24.6119ZM15.7735 21.5355L15.3985 22.185L15.7735 21.5355ZM16.2735 21.5355L16.6485 22.185L16.6485 22.185L16.2735 21.5355ZM13.6307 17.824L12.8807 17.824L13.6307 17.824ZM13.8807 17.391L13.5057 16.7415L13.8807 17.391ZM13.8807 20.4427L13.5057 21.0922L13.8807 20.4427ZM14.3807 20.0096L14.3807 17.824L12.8807 17.824L12.8807 20.0096L14.3807 20.0096ZM16.1485 20.8859L14.2557 19.7931L13.5057 21.0922L15.3985 22.185L16.1485 20.8859ZM17.7912 19.7931L15.8985 20.8859L16.6485 22.185L18.5412 21.0922L17.7912 19.7931ZM17.6662 17.824V20.0096H19.1662V17.824H17.6662ZM15.8985 16.9477L17.7912 18.0405L18.5412 16.7415L16.6485 15.6487L15.8985 16.9477ZM14.2557 18.0405L16.1485 16.9477L15.3985 15.6487L13.5057 16.7415L14.2557 18.0405ZM15.2735 21.7046V24.1789H16.7735V21.7046H15.2735ZM15.8984 25.2614L17.7912 26.3542L18.5412 25.0552L16.6485 23.9624L15.8984 25.2614ZM19.0412 26.3542L20.934 25.2614L20.1839 23.9624L18.2912 25.0552L19.0412 26.3542ZM21.5589 24.1789V21.9933H20.0589V24.1789H21.5589ZM20.934 20.9107L18.7912 19.6736L18.0412 20.9726L20.1839 22.2098L20.934 20.9107ZM15.2237 21.7046V24.1789H16.7237V21.7046H15.2237ZM15.3487 23.9624L13.456 25.0552L14.206 26.3542L16.0987 25.2614L15.3487 23.9624ZM13.706 25.0552L11.8132 23.9624L11.0632 25.2614L12.956 26.3542L13.706 25.0552ZM11.9382 24.1789V21.9933H10.4382V24.1789H11.9382ZM11.8132 22.2098L13.956 20.9726L13.206 19.6736L11.0632 20.9107L11.8132 22.2098ZM11.9382 21.9933C11.9382 22.0826 11.8906 22.1651 11.8132 22.2098L11.0632 20.9107C10.6765 21.134 10.4382 21.5467 10.4382 21.9933H11.9382ZM11.8132 23.9624C11.8906 24.0071 11.9382 24.0896 11.9382 24.1789H10.4382C10.4382 24.6255 10.6765 25.0381 11.0632 25.2614L11.8132 23.9624ZM13.456 25.0552C13.5333 25.0105 13.6286 25.0105 13.706 25.0552L12.956 26.3542C13.3427 26.5775 13.8192 26.5775 14.206 26.3542L13.456 25.0552ZM21.5589 21.9933C21.5589 21.5467 21.3207 21.134 20.934 20.9107L20.1839 22.2098C20.1066 22.1651 20.0589 22.0826 20.0589 21.9933H21.5589ZM20.934 25.2614C21.3207 25.0381 21.5589 24.6255 21.5589 24.1789H20.0589C20.0589 24.0896 20.1066 24.0071 20.1839 23.9624L20.934 25.2614ZM17.7912 26.3542C18.1779 26.5775 18.6545 26.5775 19.0412 26.3542L18.2912 25.0552C18.3685 25.0105 18.4638 25.0105 18.5412 25.0552L17.7912 26.3542ZM15.2735 24.1789C15.2735 24.6255 15.5117 25.0381 15.8984 25.2614L16.6485 23.9624C16.7258 24.0071 16.7735 24.0896 16.7735 24.1789H15.2735ZM16.6485 15.6487C16.2617 15.4254 15.7852 15.4254 15.3985 15.6487L16.1485 16.9477C16.0711 16.9924 15.9758 16.9924 15.8985 16.9477L16.6485 15.6487ZM19.1662 17.824C19.1662 17.3774 18.928 16.9648 18.5412 16.7415L17.7912 18.0405C17.7139 17.9959 17.6662 17.9133 17.6662 17.824H19.1662ZM18.5412 21.0922C18.928 20.8689 19.1662 20.4562 19.1662 20.0096H17.6662C17.6662 19.9203 17.7139 19.8378 17.7912 19.7931L18.5412 21.0922ZM15.2237 24.1789C15.2237 24.0896 15.2714 24.0071 15.3487 23.9624L16.0987 25.2614C16.4855 25.0381 16.7237 24.6255 16.7237 24.1789H15.2237ZM15.3985 22.185C15.7852 22.4083 16.2617 22.4083 16.6485 22.185L15.8985 20.8859C15.9758 20.8413 16.0711 20.8413 16.1485 20.8859L15.3985 22.185ZM14.3807 17.824C14.3807 17.9133 14.3331 17.9959 14.2557 18.0405L13.5057 16.7415C13.119 16.9648 12.8807 17.3774 12.8807 17.824L14.3807 17.824ZM12.8807 20.0096C12.8807 20.4562 13.119 20.8689 13.5057 21.0922L14.2557 19.7931C14.3331 19.8378 14.3807 19.9203 14.3807 20.0096L12.8807 20.0096Z" fill="#1C1C1C"/>
<path d="M26.6204 10.9259C26.6204 11.3401 26.9562 11.6759 27.3704 11.6759C27.7846 11.6759 28.1204 11.3401 28.1204 10.9259H26.6204ZM25.75 8.55556V5.5H24.25V8.55556H25.75ZM25.5 5.75H26.8704V4.25H25.5V5.75ZM26.6204 5.5V10.9259H28.1204V5.5H26.6204ZM26.8704 5.75C26.7323 5.75 26.6204 5.63807 26.6204 5.5H28.1204C28.1204 4.80964 27.5607 4.25 26.8704 4.25V5.75ZM25.75 5.5C25.75 5.63807 25.6381 5.75 25.5 5.75V4.25C24.8096 4.25 24.25 4.80964 24.25 5.5H25.75Z" fill="#1C1C1C"/>
<path d="M7 15C7 15 7.82191 12.3463 8.875 10.9167C9.85277 9.58927 12 8 12 8" stroke="#1C1C1C" stroke-linecap="round"/>
</svg>
