<svg width="32" height="32" viewBox="0 0 32 32" fill="none" xmlns="http://www.w3.org/2000/svg">
<path d="M23.25 5.34641C23.25 5.53043 23.1565 5.78665 22.8206 6.10298C22.4851 6.41892 21.9649 6.73645 21.2754 7.01852C19.9005 7.581 17.9997 7.94281 16 7.94281C14.0003 7.94281 12.0995 7.581 10.7246 7.01852C10.0351 6.73645 9.5149 6.41892 9.17941 6.10298C8.84351 5.78665 8.75 5.53043 8.75 5.34641C8.75 5.16238 8.84351 4.90616 9.17941 4.58983C9.5149 4.27389 10.0351 3.95636 10.7246 3.67429C12.0995 3.11181 14.0003 2.75 16 2.75C17.9997 2.75 19.9005 3.11181 21.2754 3.67429C21.9649 3.95636 22.4851 4.27389 22.8206 4.58983C23.1565 4.90616 23.25 5.16238 23.25 5.34641Z" stroke="#1C1C1C" stroke-width="1.5"/>
<path d="M8 8C8 8 7.49888 9.04703 7.21048 9.99999C6.7046 11.6716 5.63406 12.3057 5.21048 14C4.7369 15.8943 5.21048 19 5.21048 19C5.79627 21.7337 5.33391 23.5666 6.71048 26C7.59689 27.5669 8.14197 28.6165 9.71048 29.5C11.5896 30.5585 16 30.5 16 30.5" stroke="#1C1C1C" stroke-width="1.5"/>
<path d="M24 7.77906C24 7.77906 24.5011 9.04699 24.7895 9.99995C25.2954 11.6716 26.3659 12.3056 26.7895 14C27.2631 15.8943 26.7895 19 26.7895 19C26.2037 21.7336 26.6661 23.5666 25.2895 26C24.4031 27.5668 23.858 28.6164 22.2895 29.5C20.4104 30.5584 15.8306 30.5 15.8306 30.5" stroke="#1C1C1C" stroke-width="1.5"/>
<path d="M5.5 20C5.5 20 11.8579 22.5 16 22.5C20.1421 22.5 26.5 20 26.5 20" stroke="#1C1C1C" stroke-width="1.5" stroke-linecap="round"/>
<path d="M6 24.5C6 24.5 12.0551 26.881 16 26.881C19.9449 26.881 26 24.5 26 24.5" stroke="#1C1C1C" stroke-width="1.5" stroke-linecap="round"/>
<path d="M13.5 10C9.18693 9.51433 6 7.41357 6 5.375C6 2.95875 10.4772 1 16 1C21.5228 1 26 2.95875 26 5.375C26 6.62617 25.1318 7.70261 23.2073 8.5" stroke="#1C1C1C" stroke-width="1.5"/>
<path d="M17.5 7.5C16.5066 7.43377 13.8672 7.0109 13 7.5C11.9655 8.08346 13.8097 8.99822 13.6144 10.1698C13.4192 11.3414 12.5 12.8122 12.5 13.9999C12.5 16.9999 14.6144 16.4999 15.5 15.9999C18.0388 14.5665 17.5523 12.3887 19.1144 13.1698C19.9877 13.6064 20.8512 14.2226 20.6144 15.1698C20.1144 17.1699 19.7516 17.6097 20.6144 18.6698C21.2782 19.4853 22.0701 19.7924 23.1144 19.6698C25.2565 19.4184 23.7826 16.32 23.6144 14.1698C23.4741 12.375 21.9646 11.3486 22.6144 9.66979C22.8686 9.01324 23.6268 8.87371 23.6144 8.16979C23.5973 7.19363 24.023 6.85736 23.1144 6.49995C21.2614 5.77097 19.4869 7.63246 17.5 7.5Z" stroke="#1C1C1C" stroke-width="1.5"/>
<path d="M9.50006 12.5C9.50006 12.5 8.15324 14.7813 8.07324 15.5C7.90832 16.9816 8.0733 18 8.0733 18" stroke="#1C1C1C" stroke-width="1.5" stroke-linecap="round"/>
</svg>
