<svg width="80" height="108" viewBox="0 0 80 108" fill="none" xmlns="http://www.w3.org/2000/svg">
<path d="M28.7663 27.644C19.2149 25.741 11.6364 21.7381 11.6364 16.9705C11.6364 10.3924 25.2566 5.05981 40 5.05981C54.7433 5.05981 70.7337 8.52546 70.7337 15.1036C70.7337 21.6817 66.2826 21.6926 66.2826 21.6926" stroke="#862B0D" stroke-width="1.5"/>
<path d="M11.5978 26.7938C11.5978 26.7938 9.85965 30.142 8.83716 33.5338C7.04358 39.4835 3.24804 41.7402 1.74625 47.7708C0.0671903 54.5132 1.74625 65.5671 1.74625 65.5671C3.82313 75.2969 2.18385 81.821 7.06443 90.4818C10.2071 96.0588 12.1397 99.7946 17.7008 102.939C24.3632 106.707 40 106.498 40 106.498" stroke="#862B0D" stroke-width="1.5"/>
<path d="M68.8261 26.7938C68.8261 26.7938 70.1403 30.1418 71.1628 33.5336C72.9564 39.4833 76.752 41.7401 78.2538 47.7706C79.9328 54.513 78.2538 65.5669 78.2538 65.5669C76.1769 75.2967 77.8162 81.8208 72.9356 90.4817C69.7929 96.0586 67.8603 99.7944 62.2992 102.939C55.6368 106.707 39.3995 106.498 39.3995 106.498" stroke="#862B0D" stroke-width="1.5"/>
<path d="M2.4837 69.0914C2.4837 69.0914 25.3143 78.0245 40 78.0245C54.6858 78.0245 77.5163 69.0914 77.5163 69.0914" stroke="#862B0D" stroke-width="1.5" stroke-linecap="round"/>
<path d="M4.81522 85.2452C4.81522 85.2452 26.0136 93.6174 40 93.6174C53.9864 93.6174 75.1848 85.2452 75.1848 85.2452" stroke="#862B0D" stroke-width="1.5" stroke-linecap="round"/>
<path d="M31.5217 33.5955C16.2299 31.8668 4.54544 24.3281 4.54544 17.0723C4.54544 8.47225 20.419 1.50055 40 1.50055C59.581 1.50055 75.4545 8.47225 75.4545 17.0723C75.4545 21.5255 73.7418 24.8059 66.9185 27.644" stroke="#862B0D" stroke-width="1.5"/>
<path d="M45.3182 24.636C41.796 24.4003 32.4384 22.8952 29.3636 24.636C25.6957 26.7127 32.2344 29.9685 31.5421 34.1385C30.8498 38.3084 27.5909 43.5434 27.5909 47.7708C27.5909 58.4486 35.0875 56.669 38.2273 54.8893C47.2284 49.7875 45.5037 42.0363 51.0421 44.8162C54.1381 46.3703 57.1998 48.5636 56.3602 51.9348C54.5873 59.0537 53.3011 60.6191 56.3602 64.3922C58.7137 67.2948 61.5212 68.3877 65.2239 67.9514C72.8184 67.0566 67.5928 56.0285 66.9966 48.3755C66.4989 41.9875 61.1471 38.3343 63.4512 32.3588C64.3522 30.022 67.0404 29.5254 66.9966 27.02C66.9359 23.5456 68.4451 22.3487 65.2239 21.0766C58.6539 18.4819 52.3626 25.1075 45.3182 24.636Z" stroke="#862B0D" stroke-width="1.5"/>
<path d="M16.9545 42.4319C16.9545 42.4319 12.765 48.5761 11.8958 53.1097C11.2415 56.5221 11.896 62.0078 11.896 62.0078" stroke="#862B0D" stroke-width="1.5" stroke-linecap="round"/>
</svg>
